<svg xmlns="http://www.w3.org/2000/svg" version="1.1" xmlns:xlink="http://www.w3.org/1999/xlink" xmlns:svgjs="http://svgjs.dev/svgjs" width="1000" height="1000" viewBox="0 0 1000 1000"><rect width="1000" height="1000" fill="#ffffff"></rect><g transform="matrix(0.7,0,0,0.7,149.57575757575756,282.1265587044535)"><svg viewBox="0 0 396 247" data-background-color="#ffffff" preserveAspectRatio="xMidYMid meet" height="623" width="1000" xmlns="http://www.w3.org/2000/svg" xmlns:xlink="http://www.w3.org/1999/xlink"><g id="tight-bounds" transform="matrix(1,0,0,1,0.2400000000000091,-0.09999999999999432)"><svg viewBox="0 0 395.52 247.2" height="247.2" width="395.52"><g><svg></svg></g><g><svg viewBox="0 0 395.52 247.2" height="247.2" width="395.52"><g transform="matrix(1,0,0,1,75.54432,81.69363327214465)"><svg viewBox="0 0 244.43135999999998 83.81273345571068" height="83.81273345571068" width="244.43135999999998"><g><svg viewBox="0 0 244.43135999999998 83.81273345571068" height="83.81273345571068" width="244.43135999999998"><g><svg viewBox="0 0 244.43135999999998 83.81273345571068" height="83.81273345571068" width="244.43135999999998"><g><svg viewBox="0 0 244.43135999999998 83.81273345571068" height="83.81273345571068" width="244.43135999999998"><g id="textblocktransform"><svg viewBox="0 0 244.43135999999998 83.81273345571068" height="83.81273345571068" width="244.43135999999998" id="textblock"><g><svg viewBox="0 0 244.43135999999998 51.91231658484524" height="51.91231658484524" width="244.43135999999998"><g transform="matrix(1,0,0,1,0,0)"><svg width="244.43135999999998" viewBox="8.050000190734863 -41.650001525878906 281.07000732421875 59.70000076293945" height="51.91231658484524" data-palette-color="#3c2c32"><path d="M24.25-33.65L24.25-33.65Q22.05-30.7 20.25-27.15 18.45-23.6 17.18-19.88 15.9-16.15 15.23-12.53 14.55-8.9 14.55-5.75L14.55-5.75Q14.55-1.85 15.7-0.1 16.85 1.65 19.65 1.65L19.65 1.65Q22.9 1.65 25.35-0.63 27.8-2.9 29.95-6.9L29.95-6.9Q31.35-9.5 32.35-12.6 33.35-15.7 33.98-18.98 34.6-22.25 34.9-25.58 35.2-28.9 35.2-31.95L35.2-31.95Q35.2-33.9 35.15-34.8 35.1-35.7 35-36.25L35-36.25Q35.15-36.25 35.75-36.15 36.35-36.05 37.13-35.9 37.9-35.75 38.68-35.5 39.45-35.25 40-34.95L40-34.95Q39.75-31.15 39.08-27.1 38.4-23.05 37.3-19.1 36.2-15.15 34.75-11.5 33.3-7.85 31.5-4.95L31.5-4.95Q28.85-0.65 25.55 1.78 22.25 4.2 17.75 4.2L17.75 4.2Q13.15 4.2 10.6 1.53 8.05-1.15 8.05-6.6L8.05-6.6Q8.05-9.75 8.75-13.73 9.45-17.7 10.63-21.83 11.8-25.95 13.35-29.88 14.9-33.8 16.6-36.9L16.6-36.9Q17.45-36.85 18.6-36.55 19.75-36.25 20.85-35.77 21.95-35.3 22.88-34.73 23.8-34.15 24.25-33.65ZM37.95-1L37.95-1Q38.2-2.45 38.82-4.83 39.45-7.2 40.3-9.88 41.15-12.55 42.1-15.25 43.05-17.95 43.95-20.1L43.95-20.1Q44.6-21.65 45.1-22.53 45.6-23.4 46.2-24L46.2-24Q46.9-23.9 47.65-23.65 48.4-23.4 49.1-23.05 49.8-22.7 50.35-22.33 50.9-21.95 51.2-21.6L51.2-21.6Q49.85-20 48.82-17.95 47.8-15.9 46.75-12.7L46.75-12.7Q49.45-15.1 51.52-17.3 53.6-19.5 55.4-22.2L55.4-22.2Q55.7-22.45 56.45-22.45L56.45-22.45Q57.15-22.45 57.8-22.23 58.45-22 58.7-21.6L58.7-21.6Q57.8-19.2 57.8-16.85L57.8-16.85Q57.8-14.65 58.45-13.55L58.45-13.55Q58.4-13.25 57.77-12.4 57.15-11.55 56.4-10.8L56.4-10.8Q55.05-11.5 54-12.73 52.95-13.95 52.45-15.4L52.45-15.4Q50.1-13.75 48.45-12.18 46.8-10.6 45.62-8.68 44.45-6.75 43.62-4.25 42.8-1.75 42.05 1.7L42.05 1.7Q41.6 1.65 40.97 1.38 40.35 1.1 39.72 0.7 39.1 0.3 38.6-0.15 38.1-0.6 37.95-1ZM63.9 0.35L63.9 0.35Q66.2-1.2 68.4-3.63 70.6-6.05 72.4-8.88 74.2-11.7 75.45-14.75 76.7-17.8 77.15-20.6L77.15-20.6Q77.15-21.2 76.5-21.4L76.5-21.4Q75.8-21.4 74.57-20.18 73.35-18.95 71.87-17.05 70.4-15.15 68.87-12.8 67.35-10.45 66.1-8.13 64.85-5.8 63.97-3.78 63.1-1.75 63-0.5L63-0.5Q62.5-0.5 62.15-1.5L62.15-1.5Q62.05-1.75 61.8-2.02 61.55-2.3 61-2.7L61-2.7Q60.75-2.9 60.5-3.18 60.25-3.45 60.15-3.65L60.15-3.65Q59.95-4.05 59.95-4.95L59.95-4.95Q59.95-7.9 60.7-11.6 61.45-15.3 62.67-19.15 63.9-23 65.55-26.73 67.2-30.45 68.97-33.55 70.75-36.65 72.55-38.8 74.35-40.95 75.95-41.65L75.95-41.65Q76.45-41.5 77.15-41.15 77.85-40.8 78.55-40.35 79.25-39.9 79.87-39.45 80.5-39 80.8-38.65L80.8-38.65Q75.3-34.2 71.27-27.23 67.25-20.25 64.7-10.75L64.7-10.75Q66.1-13.35 67.85-15.78 69.6-18.2 71.32-20.05 73.05-21.9 74.62-23 76.2-24.1 77.25-24.1L77.25-24.1Q78.05-23.9 78.8-23.4 79.55-22.9 80.15-22.18 80.75-21.45 81.15-20.63 81.55-19.8 81.65-18.9L81.65-18.9Q81.6-16.8 80.92-14.43 80.25-12.05 79.12-9.75 78-7.45 76.57-5.35 75.15-3.25 73.57-1.68 72-0.1 70.42 0.85 68.85 1.8 67.45 1.8L67.45 1.8Q66.85 1.8 66.22 1.68 65.6 1.55 65.07 1.33 64.55 1.1 64.22 0.85 63.9 0.6 63.9 0.35ZM100.14-20.2L100.14-20.2Q100.64-20.2 101.32-20.03 101.99-19.85 102.54-19.58 103.09-19.3 103.47-19 103.84-18.7 103.84-18.45L103.84-18.45Q102.84-16.35 101.99-14.23 101.14-12.1 100.54-10.15 99.94-8.2 99.62-6.5 99.29-4.8 99.29-3.55L99.29-3.55Q99.29-2.15 99.59-1.23 99.89-0.3 100.59 0.1L100.59 0.1Q99.99 0.5 99.04 0.75 98.09 1 97.34 1L97.34 1Q94.64 1 94.64-2.7L94.64-2.7Q94.64-5.55 96.54-10.5L96.54-10.5Q95.54-8.2 94.24-6.18 92.94-4.15 91.59-2.6 90.24-1.05 88.87-0.08 87.49 0.9 86.34 1.1L86.34 1.1Q84.49 1 83.34-0.68 82.19-2.35 82.19-4.95L82.19-4.95Q82.19-7.75 83.39-10.85 84.59-13.95 86.47-16.6 88.34-19.25 90.54-21.03 92.74-22.8 94.79-22.9L94.79-22.9Q95.29-22.75 95.92-22.3 96.54-21.85 97.12-21.25 97.69-20.65 98.09-20.03 98.49-19.4 98.54-18.95L98.54-18.95Q96.54-18.65 94.42-17 92.29-15.35 90.57-13.03 88.84-10.7 87.74-8.05 86.64-5.4 86.64-3.1L86.64-3.1Q86.64-2.15 87.34-1.9L87.34-1.9Q88.79-2.2 90.69-4.38 92.59-6.55 95.29-11.1L95.29-11.1Q95.79-12 96.42-13.1 97.04-14.2 97.69-15.4 98.34-16.6 98.97-17.82 99.59-19.05 100.14-20.2ZM114.49-24.25L114.49-24.25Q115.79-23.85 116.94-22.48 118.09-21.1 118.64-19.45L118.64-19.45Q118.09-18.1 116.94-16.2 115.79-14.3 114.64-12.33 113.49-10.35 112.57-8.58 111.64-6.8 111.49-5.65L111.49-5.65Q112.29-6.5 113.27-7.63 114.24-8.75 115.17-9.88 116.09-11 116.89-11.93 117.69-12.85 118.14-13.3L118.14-13.3Q119.09-14.3 120.39-15.63 121.69-16.95 123.12-18.13 124.54-19.3 125.99-20.13 127.44-20.95 128.64-20.95L128.64-20.95Q129.94-20.95 130.82-20.08 131.69-19.2 132.19-18.25L132.19-18.25Q132.19-18.15 131.82-17.98 131.44-17.8 130.74-17L130.74-17Q130.04-16.1 129.17-14.53 128.29-12.95 127.47-11.13 126.64-9.3 126.09-7.4 125.54-5.5 125.54-3.95L125.54-3.95Q125.54-2.7 125.87-2.35 126.19-2 126.79-2L126.79-2Q127.34-2 127.94-2.25 128.54-2.5 128.89-2.5L128.89-2.5Q129.09-2.4 129.22-2.08 129.34-1.75 129.34-1.5L129.34-1.5Q128.94-1.15 128.39-0.8 127.84-0.45 127.24-0.15 126.64 0.15 126.07 0.35 125.49 0.55 125.04 0.55L125.04 0.55Q123.59 0.55 122.67 0.13 121.74-0.3 121.22-1 120.69-1.7 120.49-2.68 120.29-3.65 120.29-4.75L120.29-4.75Q120.29-5.35 120.39-6.1 120.49-6.85 120.79-7.88 121.09-8.9 121.64-10.33 122.19-11.75 123.04-13.75L123.04-13.75Q122.94-13.75 121.69-13.05 120.44-12.35 118.99-10.9L118.99-10.9Q116.64-8.65 114.77-6.45 112.89-4.25 110.94-1.55L110.94-1.55Q109.84 0 109.02 1.07 108.19 2.15 107.59 2.5L107.59 2.5Q106.54 1.9 106.04 0.83 105.54-0.25 105.29-1.4L105.29-1.4Q105.29-2.35 105.57-3.8 105.84-5.25 106.32-7.03 106.79-8.8 107.49-10.75 108.19-12.7 109.04-14.65L109.04-14.65Q110.94-19.05 112.52-21.55 114.09-24.05 114.49-24.25ZM173.19-15.9L173.19-15.9Q174.49-15.9 175.24-15 175.99-14.1 175.99-12.5L175.99-12.5Q175.99-12.1 175.94-11.68 175.89-11.25 175.79-10.95L175.79-10.95Q174.74-11.2 173.49-11.25L173.49-11.25Q173.19-9.05 171.89-6.63 170.59-4.2 168.74-2.08 166.89 0.05 164.69 1.65 162.49 3.25 160.34 3.8L160.34 3.8Q153.64 3.65 150.56 0.33 147.49-3 147.49-10.05L147.49-10.05Q147.49-15.2 149.39-20.03 151.29-24.85 154.44-28.6 157.59-32.35 161.66-34.63 165.74-36.9 170.14-36.9L170.14-36.9Q173.59-36.9 175.51-35.45 177.44-34 177.44-31.35L177.44-31.35Q177.44-29.6 176.61-28.1 175.79-26.6 173.89-24.85L173.89-24.85Q172.74-25.2 171.89-26.08 171.04-26.95 170.84-28.1L170.84-28.1Q172.54-29.35 173.24-30.4 173.94-31.45 173.94-32.9L173.94-32.9Q173.94-35.2 171.19-35.2L171.19-35.2Q168.94-35.2 166.36-33.52 163.79-31.85 161.19-28.7L161.19-28.7Q157.49-24.25 155.79-19.53 154.09-14.8 154.09-8.9L154.09-8.9Q154.09-6.7 154.54-4.9 154.99-3.1 155.74-1.75 156.49-0.4 157.51 0.4 158.54 1.2 159.74 1.3L159.74 1.3Q161.34 0.95 162.94-0.33 164.54-1.6 165.86-3.33 167.19-5.05 168.11-7.03 169.04-9 169.24-10.8L169.24-10.8Q167.84-10.5 166.56-10.23 165.29-9.95 164.14-9.95L164.14-9.95Q162.64-9.95 161.51-10.7 160.39-11.45 159.99-12.75L159.99-12.75Q160.89-13.25 162.61-13.8 164.34-14.35 166.29-14.83 168.24-15.3 170.11-15.6 171.99-15.9 173.19-15.9ZM195.03-20.2L195.03-20.2Q195.53-20.2 196.21-20.03 196.88-19.85 197.43-19.58 197.98-19.3 198.36-19 198.73-18.7 198.73-18.45L198.73-18.45Q197.73-16.35 196.88-14.23 196.03-12.1 195.43-10.15 194.83-8.2 194.51-6.5 194.18-4.8 194.18-3.55L194.18-3.55Q194.18-2.15 194.48-1.23 194.78-0.3 195.48 0.1L195.48 0.1Q194.88 0.5 193.93 0.75 192.98 1 192.23 1L192.23 1Q189.53 1 189.53-2.7L189.53-2.7Q189.53-5.55 191.43-10.5L191.43-10.5Q190.43-8.2 189.13-6.18 187.83-4.15 186.48-2.6 185.13-1.05 183.76-0.08 182.38 0.9 181.23 1.1L181.23 1.1Q179.38 1 178.23-0.68 177.08-2.35 177.08-4.95L177.08-4.95Q177.08-7.75 178.28-10.85 179.48-13.95 181.36-16.6 183.23-19.25 185.43-21.03 187.63-22.8 189.68-22.9L189.68-22.9Q190.18-22.75 190.81-22.3 191.43-21.85 192.01-21.25 192.58-20.65 192.98-20.03 193.38-19.4 193.43-18.95L193.43-18.95Q191.43-18.65 189.31-17 187.18-15.35 185.46-13.03 183.73-10.7 182.63-8.05 181.53-5.4 181.53-3.1L181.53-3.1Q181.53-2.15 182.23-1.9L182.23-1.9Q183.68-2.2 185.58-4.38 187.48-6.55 190.18-11.1L190.18-11.1Q190.68-12 191.31-13.1 191.93-14.2 192.58-15.4 193.23-16.6 193.86-17.82 194.48-19.05 195.03-20.2ZM201.23-3.2L201.23-3.2Q201.23-5.4 202.28-9.38 203.33-13.35 205.23-18.65L205.23-18.65Q208.33-27.1 211.06-32.73 213.78-38.35 216.38-41.5L216.38-41.5Q216.98-41.4 217.86-41 218.73-40.6 219.58-40.13 220.43-39.65 221.11-39.15 221.78-38.65 221.98-38.35L221.98-38.35Q218.08-33.75 215.13-28.45 212.18-23.15 209.73-16.3L209.73-16.3Q207.63-10.4 206.53-5.68 205.43-0.95 205.43 2.2L205.43 2.2Q205.43 3.05 205.43 3.25 205.43 3.45 205.48 3.65L205.48 3.65Q204.78 3.55 204.28 3.3 203.78 3.05 203.63 2.7L203.63 2.7Q203.53 2.45 203.08 1.98 202.63 1.5 202.28 1.25L202.28 1.25Q201.83 0.95 201.53-0.33 201.23-1.6 201.23-3.2ZM213.03-3.2L213.03-3.2Q213.03-5.4 214.08-9.38 215.13-13.35 217.03-18.65L217.03-18.65Q220.13-27.1 222.85-32.73 225.58-38.35 228.18-41.5L228.18-41.5Q228.78-41.4 229.65-41 230.53-40.6 231.38-40.13 232.23-39.65 232.9-39.15 233.58-38.65 233.78-38.35L233.78-38.35Q229.88-33.75 226.93-28.45 223.98-23.15 221.53-16.3L221.53-16.3Q219.43-10.4 218.33-5.68 217.23-0.95 217.23 2.2L217.23 2.2Q217.23 3.05 217.23 3.25 217.23 3.45 217.28 3.65L217.28 3.65Q216.58 3.55 216.08 3.3 215.58 3.05 215.43 2.7L215.43 2.7Q215.33 2.45 214.88 1.98 214.43 1.5 214.08 1.25L214.08 1.25Q213.63 0.95 213.33-0.33 213.03-1.6 213.03-3.2ZM242.58-20.7L242.58-20.7Q242.38-17.6 241.48-15.38 240.58-13.15 238.9-11.48 237.23-9.8 234.83-8.45 232.43-7.1 229.23-5.85L229.23-5.85Q229.23-5.55 229.2-5.23 229.18-4.9 229.18-4.55L229.18-4.55Q229.18-3.9 229.28-3.2 229.38-2.5 229.63-1.9 229.88-1.3 230.33-0.93 230.78-0.55 231.48-0.55L231.48-0.55Q232.83-0.55 234.13-1.15 235.43-1.75 236.6-2.63 237.78-3.5 238.8-4.53 239.83-5.55 240.63-6.4L240.63-6.4Q241.13-5.95 241.48-5.55L241.48-5.55Q239.23-2.55 236.55-0.58 233.88 1.4 231.48 1.95L231.48 1.95Q228.03 1.55 226.1-0.58 224.18-2.7 224.18-5.7L224.18-5.7Q224.18-7.75 224.75-9.88 225.33-12 226.35-13.98 227.38-15.95 228.75-17.7 230.13-19.45 231.7-20.75 233.28-22.05 234.95-22.8 236.63-23.55 238.28-23.55L238.28-23.55Q240.58-23.25 242.58-20.7ZM239.13-19.05L239.13-19.05Q237.78-18.85 236.33-17.95 234.88-17.05 233.6-15.55 232.33-14.05 231.28-12.05 230.23-10.05 229.63-7.75L229.63-7.75Q233.63-9.75 236.28-12.68 238.93-15.6 239.13-19.05ZM243.67-1L243.67-1Q243.92-2.45 244.55-4.83 245.17-7.2 246.02-9.88 246.87-12.55 247.82-15.25 248.77-17.95 249.67-20.1L249.67-20.1Q250.32-21.65 250.82-22.53 251.32-23.4 251.92-24L251.92-24Q252.62-23.9 253.37-23.65 254.12-23.4 254.82-23.05 255.52-22.7 256.07-22.33 256.62-21.95 256.92-21.6L256.92-21.6Q255.57-20 254.55-17.95 253.52-15.9 252.47-12.7L252.47-12.7Q255.17-15.1 257.25-17.3 259.32-19.5 261.12-22.2L261.12-22.2Q261.42-22.45 262.17-22.45L262.17-22.45Q262.87-22.45 263.52-22.23 264.17-22 264.42-21.6L264.42-21.6Q263.52-19.2 263.52-16.85L263.52-16.85Q263.52-14.65 264.17-13.55L264.17-13.55Q264.12-13.25 263.5-12.4 262.87-11.55 262.12-10.8L262.12-10.8Q260.77-11.5 259.72-12.73 258.67-13.95 258.17-15.4L258.17-15.4Q255.82-13.75 254.17-12.18 252.52-10.6 251.35-8.68 250.17-6.75 249.35-4.25 248.52-1.75 247.77 1.7L247.77 1.7Q247.32 1.65 246.7 1.38 246.07 1.1 245.45 0.7 244.82 0.3 244.32-0.15 243.82-0.6 243.67-1ZM283.82-7.75L283.82-7.75Q282.67-4.1 281.52-1.1 280.37 1.9 279.07 4.42 277.77 6.95 276.27 9.08 274.77 11.2 272.97 13.1L272.97 13.1Q270.67 15.5 268.22 16.78 265.77 18.05 263.32 18.05L263.32 18.05Q262.07 18.05 260.85 17.78 259.62 17.5 258.55 17.03 257.47 16.55 256.65 15.93 255.82 15.3 255.47 14.6L255.47 14.6Q255.47 14 256.17 13.55L256.17 13.55Q256.77 14.1 257.17 14.4 257.57 14.7 257.95 14.9 258.32 15.1 258.75 15.15 259.17 15.2 259.72 15.2L259.72 15.2Q262.57 15.2 265.3 13.53 268.02 11.85 270.45 8.78 272.87 5.7 274.87 1.33 276.87-3.05 278.27-8.45L278.27-8.45Q277.62-7.45 276.67-6 275.72-4.55 274.57-3.13 273.42-1.7 272.2-0.55 270.97 0.6 269.82 1L269.82 1Q269.02 0.95 268.15 0.68 267.27 0.4 266.5-0.1 265.72-0.6 265.12-1.3 264.52-2 264.32-2.9L264.32-2.9Q264.32-4.35 264.42-5.23 264.52-6.1 264.77-7.15L264.77-7.15Q265.22-9.05 266.1-11.45 266.97-13.85 268.15-16.18 269.32-18.5 270.75-20.53 272.17-22.55 273.72-23.7L273.72-23.7Q274.12-23.7 274.72-23.63 275.32-23.55 275.97-23.35 276.62-23.15 277.22-22.88 277.82-22.6 278.27-22.15L278.27-22.15Q277.72-21.65 275.87-18.8 274.02-15.95 271.77-10.6L271.77-10.6Q271.52-10.05 271.17-9 270.82-7.95 270.5-6.8 270.17-5.65 269.92-4.55 269.67-3.45 269.67-2.8L269.67-2.8Q269.67-2.4 269.8-2.2 269.92-2 270.02-1.9L270.02-1.9Q270.92-2.05 272.42-3.38 273.92-4.7 275.82-7.5L275.82-7.5Q277.02-9.3 278.02-11.08 279.02-12.85 280-14.65 280.97-16.45 282.02-18.35 283.07-20.25 284.27-22.25L284.27-22.25Q284.92-22.25 285.67-22.1 286.42-21.95 287.12-21.73 287.82-21.5 288.35-21.23 288.87-20.95 289.12-20.65L289.12-20.65Q287.57-17.35 286.22-14.2 284.87-11.05 283.82-7.75Z" opacity="1" transform="matrix(1,0,0,1,0,0)" fill="#000000" class="wordmark-text-0" data-fill-palette-color="primary" id="text-0"></path></svg></g></svg></g><g transform="matrix(1,0,0,1,0,64.16756863492917)"><svg viewBox="0 0 143.50565145599998 19.64516482078152" height="19.64516482078152" width="143.50565145599998"><g transform="matrix(1,0,0,1,0,0)"><svg width="143.50565145599998" viewBox="1.7100000381469727 -37.9900016784668 361.4700012207031 49.4900016784668" height="19.64516482078152" data-palette-color="#f9ad59"><path d="M17.31 0L17.31-2.34Q15.87-1 14.12-0.15 12.38 0.71 10.16 0.71L10.16 0.71Q8.3 0.71 6.75 0.12 5.2-0.46 4.08-1.48 2.95-2.49 2.33-3.83 1.71-5.18 1.71-6.69L1.71-6.69Q1.71-8.3 2.19-9.55 2.66-10.79 3.45-11.71 4.25-12.62 5.31-13.24 6.37-13.87 7.53-14.25 8.69-14.62 9.9-14.78 11.11-14.94 12.21-14.94L12.21-14.94Q13.96-14.94 15.16-14.83 16.36-14.72 17.33-14.53L17.33-14.53 17.36-16.6Q17.36-17.94 16.97-18.93 16.58-19.92 15.87-20.57 15.16-21.22 14.17-21.53 13.18-21.85 11.96-21.85L11.96-21.85Q10.82-21.85 9.77-21.69 8.72-21.53 7.8-21.28 6.88-21.02 6.12-20.69 5.35-20.36 4.81-20L4.81-20 3.32-23.14Q4.22-23.73 5.3-24.23 6.37-24.73 7.56-25.09 8.74-25.44 9.97-25.65 11.21-25.85 12.4-25.85L12.4-25.85Q14.6-25.85 16.36-25.33 18.12-24.8 19.34-23.71 20.56-22.61 21.22-20.91 21.88-19.21 21.88-16.85L21.88-16.85 21.85-4.2 24.66-4.2 24.66 0 17.31 0ZM11.16-3.1L11.16-3.1Q12.06-3.1 12.96-3.32 13.87-3.54 14.67-3.92 15.48-4.3 16.16-4.8 16.85-5.3 17.31-5.83L17.31-5.83 17.33-11.55 12.06-11.55Q10.74-11.55 9.66-11.25 8.57-10.96 7.78-10.4 6.98-9.84 6.54-9.01 6.1-8.18 6.1-7.1L6.1-7.1Q6.1-6.1 6.47-5.36 6.84-4.61 7.51-4.11 8.18-3.61 9.11-3.36 10.03-3.1 11.16-3.1ZM47.97-25.44L47.97-19.95 43.33-19.95 43.33-21.51Q42.53-21.51 41.68-21.2 40.84-20.9 40.11-20.28 39.38-19.65 38.83-18.69 38.28-17.72 38.03-16.41L38.03-16.41 38.03-4.2 42.33-4.2 42.33 0 29.78 0 29.78-4.2 33.27-4.2 33.3-21.09 29.78-21.09 29.78-25.29 37.86-25.29 37.86-21.8Q38.3-22.58 38.85-23.25 39.4-23.93 40.07-24.43 40.74-24.93 41.56-25.21 42.38-25.49 43.33-25.49L43.33-25.49Q44.6-25.49 45.73-25.49 46.85-25.49 47.97-25.44L47.97-25.44ZM60.54-33.45L60.54-25.29 66.47-25.29 66.47-21.61 60.49-21.61 60.42-7.01Q60.42-5.52 60.76-4.59 61.1-3.66 61.86-3.31 62.62-2.95 63.57-2.95L63.57-2.95Q64.59-2.95 65.38-3.14 66.16-3.32 67.08-3.76L67.08-3.76 68.13-0.71Q66.96-0.1 65.67 0.26 64.37 0.61 62.62 0.61L62.62 0.61Q60.96 0.61 59.72 0.21 58.49-0.2 57.65-1.15 56.81-2.1 56.39-3.7 55.98-5.3 55.98-7.69L55.98-7.69 56.05-21.61 52.02-21.61 52.02-25.29 56.1-25.29 56.1-31.35 60.54-33.45ZM69.38 0Q69.38 0 69.38 0ZM97.62 0L97.62-2.34Q96.18-1 94.44-0.15 92.69 0.71 90.47 0.71L90.47 0.71Q88.61 0.71 87.06 0.12 85.51-0.46 84.39-1.48 83.27-2.49 82.64-3.83 82.02-5.18 82.02-6.69L82.02-6.69Q82.02-8.3 82.5-9.55 82.97-10.79 83.77-11.71 84.56-12.62 85.62-13.24 86.68-13.87 87.84-14.25 89-14.62 90.21-14.78 91.42-14.94 92.52-14.94L92.52-14.94Q94.28-14.94 95.47-14.83 96.67-14.72 97.65-14.53L97.65-14.53 97.67-16.6Q97.67-17.94 97.28-18.93 96.89-19.92 96.18-20.57 95.47-21.22 94.48-21.53 93.5-21.85 92.28-21.85L92.28-21.85Q91.13-21.85 90.08-21.69 89.03-21.53 88.11-21.28 87.2-21.02 86.43-20.69 85.66-20.36 85.12-20L85.12-20 83.63-23.14Q84.54-23.73 85.61-24.23 86.68-24.73 87.87-25.09 89.05-25.44 90.29-25.65 91.52-25.85 92.71-25.85L92.71-25.85Q94.91-25.85 96.67-25.33 98.43-24.8 99.65-23.71 100.87-22.61 101.53-20.91 102.19-19.21 102.19-16.85L102.19-16.85 102.16-4.2 104.97-4.2 104.97 0 97.62 0ZM91.47-3.1L91.47-3.1Q92.37-3.1 93.28-3.32 94.18-3.54 94.99-3.92 95.79-4.3 96.47-4.8 97.16-5.3 97.62-5.83L97.62-5.83 97.65-11.55 92.37-11.55Q91.05-11.55 89.97-11.25 88.88-10.96 88.09-10.4 87.29-9.84 86.86-9.01 86.42-8.18 86.42-7.1L86.42-7.1Q86.42-6.1 86.78-5.36 87.15-4.61 87.82-4.11 88.49-3.61 89.42-3.36 90.35-3.1 91.47-3.1ZM126.75 0L126.75-4.2 130.31-4.2 130.31-15.75Q130.31-18.65 128.83-20.15 127.36-21.66 124.6-21.66L124.6-21.66Q123.01-21.66 121.4-20.9 119.79-20.14 118.35-19.02L118.35-19.02 118.35-4.2 121.91-4.2 121.91 0 110.09 0 110.09-4.2 113.61-4.2 113.61-21.09 110.09-21.09 110.09-25.29 118.15-25.29 118.15-22.31 118.2-22.31Q119.01-23.02 119.92-23.66 120.84-24.29 121.84-24.76 122.84-25.22 123.93-25.49 125.01-25.76 126.21-25.76L126.21-25.76Q128.23-25.76 129.87-25.2 131.51-24.63 132.65-23.49 133.8-22.34 134.42-20.54 135.05-18.75 135.05-16.31L135.05-16.31 135.05-4.2 138.56-4.2 138.56 0 126.75 0ZM158.36-33.79L158.36-37.99 166.34-37.99 166.34-4.2 170.05-4.2 170.05 0 161.8 0 161.8-2.08Q160.58-0.83 158.97-0.13 157.36 0.56 155.31 0.56L155.31 0.56Q152.74 0.56 150.53-0.33 148.32-1.22 146.7-2.94 145.08-4.66 144.16-7.17 143.25-9.67 143.25-12.89L143.25-12.89Q143.25-15.82 144.13-18.23 145-20.63 146.62-22.33 148.23-24.02 150.5-24.96 152.77-25.9 155.55-25.9L155.55-25.9Q157.38-25.9 158.9-25.5 160.41-25.1 161.8-24.1L161.8-24.1 161.8-33.79 158.36-33.79ZM155.89-3.39L155.89-3.39Q157.92-3.39 159.29-3.99 160.65-4.59 161.8-5.79L161.8-5.79 161.8-19.95Q160.58-20.97 158.99-21.44 157.41-21.9 155.75-21.9L155.75-21.9Q154.14-21.9 152.72-21.3 151.3-20.7 150.24-19.56 149.18-18.41 148.57-16.75 147.96-15.09 147.96-12.94L147.96-12.94Q147.96-10.6 148.54-8.81 149.13-7.03 150.18-5.82 151.23-4.61 152.69-4 154.16-3.39 155.89-3.39ZM171.96 0Q171.96 0 171.96 0ZM184.28-33.79L184.28-37.99 192.48-37.99 192.48-23.19Q194.1-24.44 196-25.17 197.9-25.9 199.93-25.9L199.93-25.9Q202.42-25.9 204.5-24.98 206.57-24.05 208.07-22.36 209.57-20.68 210.4-18.32 211.23-15.97 211.23-13.11L211.23-13.11Q211.23-10.06 210.31-7.58 209.38-5.1 207.73-3.32 206.08-1.54 203.81-0.57 201.54 0.39 198.83 0.39L198.83 0.39Q196.95 0.39 195.3-0.16 193.66-0.71 192.48-1.59L192.48-1.59 192.48 0 187.94 0 187.94-33.79 184.28-33.79ZM198.73-21.9L198.73-21.9Q196.95-21.9 195.32-21.17 193.68-20.43 192.48-19.19L192.48-19.19 192.48-5.59Q193.27-4.79 194.78-4.16 196.29-3.54 198.59-3.54L198.59-3.54Q200.15-3.54 201.59-4.13 203.03-4.71 204.13-5.9 205.23-7.08 205.89-8.84 206.55-10.6 206.55-12.94L206.55-12.94Q206.55-15.09 205.92-16.75 205.3-18.41 204.24-19.56 203.18-20.7 201.76-21.3 200.35-21.9 198.73-21.9ZM238.43-12.06L220.22-12.06Q220.22-10.99 220.38-10.1 220.53-9.2 220.83-8.4L220.83-8.4Q221.73-5.96 223.72-4.72 225.71-3.49 228.22-3.49L228.22-3.49Q230.2-3.49 232.07-4.04 233.94-4.59 235.99-5.76L235.99-5.76 237.82-2.66Q235.33-0.95 232.81-0.12 230.3 0.71 227.59 0.71L227.59 0.71Q225.03 0.71 222.84-0.15 220.66-1 219.08-2.69 217.51-4.37 216.62-6.88 215.72-9.4 215.72-12.74L215.72-12.74Q215.72-15.45 216.48-17.86 217.24-20.26 218.74-22.06 220.24-23.85 222.46-24.9 224.68-25.95 227.64-25.95L227.64-25.95Q230.5-25.95 232.41-25.09 234.33-24.22 235.54-22.79 236.75-21.36 237.37-19.53 237.99-17.7 238.23-15.8L238.23-15.8Q238.36-14.87 238.39-13.92 238.43-12.96 238.43-12.06L238.43-12.06ZM227.32-22.14L227.32-22.14Q225.73-22.14 224.55-21.69 223.37-21.24 222.54-20.4 221.71-19.56 221.21-18.33 220.71-17.11 220.46-15.6L220.46-15.6 233.57-15.6Q233.47-17.02 233.12-18.21 232.77-19.41 232.03-20.29 231.3-21.17 230.15-21.66 229.01-22.14 227.32-22.14ZM242.92-21.09L242.92-25.29 252.51-25.29 252.51-21.09 249.51-21.09 255.44-4.96 261.64-21.09 258.67-21.09 258.67-25.29 268.26-25.29 268.26-21.09 265.65-21.09 254.39 7.3 257.86 7.3 257.86 11.5 247.66 11.5 247.66 7.3 250.73 7.3 253.42 0.34 244.97-21.09 242.92-21.09ZM272.97-12.65L272.97-12.65Q272.99-15.65 273.93-18.12 274.87-20.58 276.56-22.35 278.24-24.12 280.56-25.07 282.88-26.03 285.67-26.03L285.67-26.03Q288.47-26.03 290.81-25.07 293.14-24.12 294.8-22.38 296.46-20.63 297.38-18.16 298.31-15.7 298.31-12.7L298.31-12.7Q298.31-9.74 297.38-7.26 296.46-4.79 294.8-3 293.14-1.22 290.81-0.23 288.47 0.76 285.67 0.76L285.67 0.76Q282.81 0.76 280.49-0.22 278.17-1.2 276.51-2.97 274.85-4.74 273.92-7.2 272.99-9.67 272.97-12.65ZM277.78-12.65L277.78-12.65Q277.78-10.47 278.4-8.72 279.03-6.96 280.11-5.73 281.2-4.49 282.63-3.82 284.05-3.15 285.67-3.15L285.67-3.15Q287.35-3.15 288.8-3.81 290.26-4.47 291.33-5.7 292.4-6.93 293.01-8.69 293.62-10.45 293.62-12.65L293.62-12.65Q293.62-14.94 293.01-16.72 292.4-18.51 291.34-19.7 290.28-20.9 288.82-21.51 287.35-22.12 285.67-22.12L285.67-22.12Q284.05-22.12 282.63-21.51 281.2-20.9 280.11-19.7 279.03-18.51 278.4-16.72 277.78-14.94 277.78-12.65ZM319.87 0L319.87-4.2 323.43-4.2 323.43-15.75Q323.43-18.65 321.95-20.15 320.48-21.66 317.72-21.66L317.72-21.66Q316.13-21.66 314.52-20.9 312.91-20.14 311.47-19.02L311.47-19.02 311.47-4.2 315.03-4.2 315.03 0 303.22 0 303.22-4.2 306.73-4.2 306.73-21.09 303.22-21.09 303.22-25.29 311.27-25.29 311.27-22.31 311.32-22.31Q312.13-23.02 313.04-23.66 313.96-24.29 314.96-24.76 315.96-25.22 317.05-25.49 318.13-25.76 319.33-25.76L319.33-25.76Q321.36-25.76 322.99-25.2 324.63-24.63 325.78-23.49 326.92-22.34 327.55-20.54 328.17-18.75 328.17-16.31L328.17-16.31 328.17-4.2 331.68-4.2 331.68 0 319.87 0ZM351.48-33.79L351.48-37.99 359.46-37.99 359.46-4.2 363.18-4.2 363.18 0 354.92 0 354.92-2.08Q353.7-0.83 352.09-0.13 350.48 0.56 348.43 0.56L348.43 0.56Q345.87 0.56 343.66-0.33 341.45-1.22 339.82-2.94 338.2-4.66 337.28-7.17 336.37-9.67 336.37-12.89L336.37-12.89Q336.37-15.82 337.25-18.23 338.13-20.63 339.74-22.33 341.35-24.02 343.62-24.96 345.89-25.9 348.67-25.9L348.67-25.9Q350.5-25.9 352.02-25.5 353.53-25.1 354.92-24.1L354.92-24.1 354.92-33.79 351.48-33.79ZM349.02-3.39L349.02-3.39Q351.04-3.39 352.41-3.99 353.78-4.59 354.92-5.79L354.92-5.79 354.92-19.95Q353.7-20.97 352.12-21.44 350.53-21.9 348.87-21.9L348.87-21.9Q347.26-21.9 345.84-21.3 344.43-20.7 343.36-19.56 342.3-18.41 341.69-16.75 341.08-15.09 341.08-12.94L341.08-12.94Q341.08-10.6 341.67-8.81 342.25-7.03 343.3-5.82 344.35-4.61 345.82-4 347.28-3.39 349.02-3.39Z" opacity="1" transform="matrix(1,0,0,1,0,0)" fill="#000000" class="slogan-text-1" data-fill-palette-color="secondary" id="text-1"></path></svg></g></svg></g></svg></g></svg></g></svg></g></svg></g></svg></g><g><path d="M245.816 0c68.262 0 123.6 55.338 123.6 123.6 0 68.262-55.338 123.6-123.6 123.6-51.226 0-95.174-31.163-113.92-75.566h2.546c18.604 43.077 61.468 73.225 111.374 73.225 66.97 0 121.259-54.29 121.259-121.259 0-66.97-54.29-121.259-121.259-121.259-49.906 0-92.77 30.148-111.374 73.225l-2.546 0c18.745-44.403 62.693-75.566 113.92-75.566z" fill="#000000" stroke="transparent" data-fill-palette-color="tertiary"></path></g></svg></g><defs></defs></svg><rect width="395.52" height="247.2" fill="none" stroke="none" visibility="hidden"></rect></g></svg></g></svg>